<svg width="638" height="630" viewBox="0 0 638 630" fill="none" xmlns="http://www.w3.org/2000/svg">
<path d="M329.193 536.986L319.001 540.295L308.809 536.986L90.1473 378.119L83.5514 368.422L83.8464 358.739L167.371 101.683C168.813 98.1875 171.063 92.8125 172.625 89.705C176.063 89.705 180.195 89.7053 183.856 89.705L454.146 89.7051C457.807 89.7053 461 89.7051 464.335 89.7051L470.631 101.683L554.155 358.739L554.15 369.451L547.855 378.119L329.193 536.986Z" stroke="url(#paint0_linear)" stroke-width="3"/>
<path d="M386.295 526.746L377.307 532.58L366.605 532.022L114.277 435.161L105.396 427.503L103.175 418.073L117.322 148.158C117.81 144.409 118.592 138.634 119.297 135.229C122.617 134.339 126.609 133.269 130.145 132.322L391.226 62.3654C394.762 61.4182 397.846 60.5916 401.067 59.7285L410.249 69.6686L557.458 296.348L560.225 306.697L556.388 316.698L386.295 526.746Z" stroke="url(#paint1_linear)" stroke-width="3"/>
<path d="M216.815 512.415L206.334 510.185L199.161 502.223L89.2288 255.309L88.3648 243.614L93.4617 235.376L294.324 54.5207C297.32 52.2144 301.956 48.6845 304.863 46.7746C307.84 48.4934 311.419 50.5599 314.589 52.3899L548.668 187.535C551.838 189.366 554.603 190.962 557.491 192.629L556.955 206.151L500.761 470.53L495.4 479.804L485.615 484.163L216.815 512.415Z" stroke="url(#paint2_linear)" stroke-width="3"/>
<path d="M216.428 198.551C216.157 198.822 215.841 198.957 215.48 198.957C215.39 198.957 215.209 198.912 214.938 198.822C214.577 198.641 214.306 198.528 214.126 198.483C211.779 197.445 209.183 196.926 206.34 196.926C203.587 196.926 200.969 197.445 198.487 198.483C196.004 199.476 193.815 200.943 191.919 202.884H191.852C189.956 204.824 188.489 207.036 187.451 209.519C186.413 212.001 185.894 214.596 185.894 217.304C185.894 220.012 186.413 222.608 187.451 225.09C188.489 227.572 189.956 229.784 191.852 231.725L191.919 231.793C193.815 233.688 196.004 235.155 198.487 236.193C200.969 237.186 203.587 237.683 206.34 237.683C209.138 237.683 211.734 237.186 214.126 236.193C214.487 236.013 214.758 235.9 214.938 235.855C215.209 235.764 215.39 235.719 215.48 235.719C215.796 235.719 216.112 235.832 216.428 236.058L217.375 237.073C217.646 237.344 217.782 237.66 217.782 238.021C217.782 238.292 217.691 238.54 217.511 238.766C217.375 238.946 217.195 239.082 216.969 239.172C216.563 239.443 216.112 239.646 215.615 239.781C212.681 241.045 209.59 241.677 206.34 241.677C203.09 241.677 199.976 241.068 196.997 239.849C194.063 238.63 191.446 236.848 189.144 234.501C186.797 232.199 185.014 229.581 183.795 226.647C182.577 223.668 181.967 220.554 181.967 217.304C181.967 214.055 182.577 210.963 183.795 208.029C185.059 205.05 186.842 202.432 189.144 200.176V200.108C191.446 197.806 194.063 196.046 196.997 194.827C199.976 193.563 203.09 192.931 206.34 192.931C209.454 192.931 212.546 193.563 215.615 194.827L216.969 195.436C217.421 195.662 217.691 196.001 217.782 196.452V196.655C217.782 197.061 217.624 197.355 217.308 197.535L216.428 198.551ZM244.372 237.141C244.733 237.141 245.026 237.276 245.252 237.547C245.523 237.773 245.658 238.066 245.658 238.427V239.714C245.658 240.075 245.523 240.391 245.252 240.661C245.026 240.887 244.733 241 244.372 241H223.452C223.091 241 222.775 240.887 222.504 240.661C222.278 240.391 222.165 240.075 222.165 239.714V194.895C222.165 194.534 222.278 194.24 222.504 194.015C222.775 193.744 223.091 193.609 223.452 193.609H244.372C244.733 193.609 245.026 193.744 245.252 194.015C245.523 194.24 245.658 194.534 245.658 194.895V196.181C245.658 196.542 245.523 196.836 245.252 197.061C245.026 197.287 244.733 197.4 244.372 197.4H226.024V215.341H242.611C242.927 215.341 243.198 215.476 243.424 215.747C243.695 215.973 243.83 216.266 243.83 216.627V217.981C243.83 218.342 243.695 218.658 243.424 218.929C243.198 219.155 242.927 219.268 242.611 219.268H226.024V237.141H244.372ZM281.436 240.932C281.21 240.887 280.985 240.707 280.759 240.391L258.282 204.915L254.897 199.634V239.714C254.897 240.075 254.761 240.368 254.49 240.594C254.265 240.819 253.971 240.932 253.61 240.932H252.392C252.031 240.932 251.715 240.819 251.444 240.594C251.218 240.368 251.105 240.075 251.105 239.714V194.963C251.105 194.601 251.218 194.308 251.444 194.082C251.67 193.812 251.963 193.676 252.324 193.676H252.527L254.897 193.609C255.393 193.609 255.754 193.812 255.98 194.218L281.436 234.297V194.963C281.436 194.601 281.549 194.308 281.774 194.082C282.045 193.857 282.339 193.744 282.655 193.744H283.941C284.302 193.744 284.595 193.857 284.821 194.082C285.092 194.308 285.227 194.601 285.227 194.963V239.714C285.227 240.03 285.137 240.3 284.956 240.526C284.776 240.707 284.55 240.842 284.279 240.932V241H281.842H281.707H281.436V240.932ZM307.62 239.714C307.62 240.075 307.484 240.391 307.214 240.661C306.988 240.887 306.694 241 306.333 241H305.047C304.686 241 304.393 240.887 304.167 240.661C303.941 240.391 303.828 240.075 303.828 239.714V197.4H290.559C290.198 197.4 289.882 197.287 289.611 197.061C289.385 196.836 289.272 196.542 289.272 196.181V194.895C289.272 194.534 289.385 194.24 289.611 194.015C289.882 193.744 290.198 193.609 290.559 193.609H320.957C321.318 193.609 321.612 193.744 321.837 194.015C322.108 194.24 322.243 194.534 322.243 194.895V196.181C322.243 196.542 322.108 196.836 321.837 197.061C321.612 197.287 321.318 197.4 320.957 197.4H307.62V239.714ZM327.583 241C327.222 241 326.906 240.887 326.636 240.661C326.41 240.391 326.297 240.075 326.297 239.714V194.895C326.297 194.534 326.41 194.24 326.636 194.015C326.906 193.744 327.222 193.609 327.583 193.609H345.457C348.3 193.609 350.941 194.331 353.378 195.775C355.815 197.174 357.733 199.092 359.133 201.53C360.577 203.967 361.299 206.607 361.299 209.451C361.299 212.565 360.532 215.363 358.997 217.846C357.463 220.283 355.296 222.314 352.498 223.939L349.79 225.564L357.779 239.037C357.869 239.172 357.914 239.375 357.914 239.646C357.914 239.962 357.869 240.188 357.779 240.323C357.553 240.774 357.192 241 356.695 241H355.206C354.709 241 354.348 240.774 354.123 240.323L345.389 225.564H330.088V239.714C330.088 240.075 329.976 240.391 329.75 240.661C329.524 240.887 329.231 241 328.87 241H327.583ZM345.457 221.773C347.623 221.773 349.609 221.208 351.415 220.08C353.265 218.952 354.732 217.44 355.815 215.544C356.898 213.648 357.44 211.617 357.44 209.451C357.44 207.284 356.898 205.298 355.815 203.493C354.732 201.642 353.265 200.176 351.415 199.092C349.609 198.009 347.623 197.468 345.457 197.468H330.088V221.773H345.457ZM399.832 193.609C400.193 193.609 400.486 193.744 400.712 194.015C400.983 194.24 401.118 194.534 401.118 194.895V223.668C401.118 226.015 400.667 228.295 399.764 230.506C398.861 232.673 397.575 234.613 395.905 236.329C394.19 238.044 392.249 239.375 390.083 240.323C387.916 241.226 385.637 241.677 383.245 241.677C380.852 241.677 378.573 241.226 376.407 240.323C374.24 239.375 372.322 238.044 370.652 236.329C368.937 234.613 367.628 232.673 366.725 230.506C365.823 228.295 365.371 226.015 365.371 223.668V194.895C365.371 194.534 365.484 194.24 365.71 194.015C365.981 193.744 366.296 193.609 366.658 193.609H367.944C368.305 193.609 368.598 193.744 368.824 194.015C369.095 194.24 369.23 194.534 369.23 194.895V223.668C369.23 225.519 369.591 227.324 370.313 229.084C371.036 230.845 372.051 232.379 373.36 233.688C374.669 234.997 376.181 236.013 377.896 236.735C379.611 237.457 381.394 237.818 383.245 237.818C385.095 237.818 386.878 237.457 388.593 236.735C390.308 236.013 391.82 234.997 393.129 233.688C394.483 232.379 395.499 230.867 396.176 229.152C396.898 227.392 397.259 225.564 397.259 223.668V194.895C397.259 194.534 397.394 194.24 397.665 194.015C397.936 193.744 398.229 193.609 398.545 193.609H399.832ZM453.315 241C452.999 241 452.728 240.91 452.503 240.729C452.277 240.504 452.142 240.233 452.097 239.917L446.68 198.822L433.546 240.12C433.321 240.707 432.914 241 432.328 241H428.469C427.792 241 427.385 240.707 427.25 240.12L414.116 198.822L408.7 239.917C408.654 240.233 408.496 240.504 408.226 240.729C408 240.91 407.729 241 407.413 241H406.195C405.788 241 405.472 240.865 405.247 240.594C405.021 240.323 404.908 239.984 404.908 239.578L410.866 194.759C410.911 194.444 411.047 194.195 411.272 194.015C411.498 193.789 411.769 193.676 412.085 193.676L415.537 193.609C416.124 193.609 416.553 193.902 416.824 194.489L430.364 237.412L444.04 194.489C444.085 194.218 444.221 194.015 444.446 193.879C444.717 193.699 444.988 193.609 445.259 193.609L448.711 193.676C449.027 193.676 449.298 193.789 449.524 194.015C449.75 194.195 449.885 194.444 449.93 194.759L455.82 239.578V239.849C455.82 240.12 455.73 240.368 455.549 240.594C455.279 240.865 454.963 241 454.602 241H453.315Z" fill="#454545"/>
<path d="M204.77 273.656C207.8 273.656 210.699 274.271 213.465 275.501C216.276 276.686 218.735 278.377 220.843 280.573C222.995 282.812 224.642 285.381 225.783 288.28C226.925 291.178 227.496 294.208 227.496 297.37C227.496 300.488 226.925 303.518 225.783 306.461C224.642 309.359 222.995 311.906 220.843 314.102C218.735 316.298 216.276 318.01 213.465 319.24C210.699 320.469 207.8 321.084 204.77 321.084C201.696 321.084 198.754 320.491 195.943 319.306C193.177 318.076 190.717 316.341 188.565 314.102C186.414 311.862 184.767 309.293 183.625 306.395C182.483 303.496 181.912 300.488 181.912 297.37C181.912 294.252 182.483 291.244 183.625 288.346C184.767 285.447 186.414 282.856 188.565 280.573C190.717 278.333 193.177 276.62 195.943 275.435C198.754 274.249 201.696 273.656 204.77 273.656ZM218.142 283.208C216.342 281.363 214.278 279.958 211.95 278.992C209.667 277.982 207.273 277.477 204.77 277.477C202.223 277.477 199.786 277.982 197.458 278.992C195.131 279.958 193.067 281.363 191.266 283.208C189.51 285.096 188.148 287.292 187.182 289.795C186.216 292.254 185.733 294.779 185.733 297.37C185.733 299.961 186.216 302.486 187.182 304.946C188.148 307.405 189.51 309.579 191.266 311.467C193.067 313.311 195.131 314.739 197.458 315.749C199.786 316.715 202.223 317.198 204.77 317.198C207.273 317.198 209.667 316.715 211.95 315.749C214.278 314.739 216.342 313.311 218.142 311.467C219.943 309.579 221.304 307.427 222.226 305.011C223.192 302.552 223.675 300.005 223.675 297.37C223.675 294.779 223.192 292.254 222.226 289.795C221.26 287.292 219.899 285.096 218.142 283.208ZM232.763 275.566C232.763 275.215 232.873 274.93 233.092 274.71C233.356 274.447 233.663 274.315 234.014 274.315H249.494C252.173 274.315 254.742 274.82 257.201 275.83C259.661 276.84 261.834 278.289 263.723 280.178C265.611 282.066 267.06 284.218 268.07 286.633C269.08 289.048 269.585 291.595 269.585 294.274V300.466C269.585 303.101 269.08 305.648 268.07 308.107C267.06 310.523 265.611 312.675 263.723 314.563C261.834 316.451 259.661 317.9 257.201 318.91C254.742 319.921 252.173 320.426 249.494 320.426H234.014C233.663 320.426 233.356 320.316 233.092 320.096C232.873 319.833 232.763 319.525 232.763 319.174V275.566ZM236.517 278.004V316.671H249.494C251.646 316.671 253.732 316.276 255.752 315.485C257.772 314.651 259.551 313.465 261.088 311.928C262.581 310.435 263.745 308.7 264.579 306.724C265.413 304.704 265.831 302.618 265.831 300.466V294.274C265.831 292.122 265.413 290.058 264.579 288.082C263.745 286.062 262.581 284.306 261.088 282.812C259.507 281.275 257.706 280.09 255.686 279.255C253.71 278.421 251.646 278.004 249.494 278.004H236.517ZM305.003 320.36C304.783 320.316 304.564 320.14 304.344 319.833L282.475 285.316L279.181 280.178V319.174C279.181 319.525 279.049 319.811 278.786 320.03C278.566 320.25 278.281 320.36 277.93 320.36H276.744C276.393 320.36 276.085 320.25 275.822 320.03C275.602 319.811 275.492 319.525 275.492 319.174V275.632C275.492 275.281 275.602 274.996 275.822 274.776C276.041 274.513 276.327 274.381 276.678 274.381H276.876L279.181 274.315C279.664 274.315 280.015 274.513 280.235 274.908L305.003 313.904V275.632C305.003 275.281 305.113 274.996 305.332 274.776C305.596 274.556 305.881 274.447 306.189 274.447H307.44C307.792 274.447 308.077 274.556 308.297 274.776C308.56 274.996 308.692 275.281 308.692 275.632V319.174C308.692 319.481 308.604 319.745 308.428 319.964C308.253 320.14 308.033 320.272 307.77 320.36V320.426H305.398H305.267H305.003V320.36ZM335.807 273.656C338.837 273.656 341.736 274.271 344.502 275.501C347.313 276.686 349.772 278.377 351.88 280.573C354.032 282.812 355.679 285.381 356.82 288.28C357.962 291.178 358.533 294.208 358.533 297.37C358.533 300.488 357.962 303.518 356.82 306.461C355.679 309.359 354.032 311.906 351.88 314.102C349.772 316.298 347.313 318.01 344.502 319.24C341.736 320.469 338.837 321.084 335.807 321.084C332.733 321.084 329.791 320.491 326.98 319.306C324.214 318.076 321.754 316.341 319.603 314.102C317.451 311.862 315.804 309.293 314.662 306.395C313.52 303.496 312.949 300.488 312.949 297.37C312.949 294.252 313.52 291.244 314.662 288.346C315.804 285.447 317.451 282.856 319.603 280.573C321.754 278.333 324.214 276.62 326.98 275.435C329.791 274.249 332.733 273.656 335.807 273.656ZM349.179 283.208C347.379 281.363 345.315 279.958 342.987 278.992C340.704 277.982 338.31 277.477 335.807 277.477C333.26 277.477 330.823 277.982 328.495 278.992C326.168 279.958 324.104 281.363 322.303 283.208C320.547 285.096 319.185 287.292 318.219 289.795C317.253 292.254 316.77 294.779 316.77 297.37C316.77 299.961 317.253 302.486 318.219 304.946C319.185 307.405 320.547 309.579 322.303 311.467C324.104 313.311 326.168 314.739 328.495 315.749C330.823 316.715 333.26 317.198 335.807 317.198C338.31 317.198 340.704 316.715 342.987 315.749C345.315 314.739 347.379 313.311 349.179 311.467C350.98 309.579 352.341 307.427 353.263 305.011C354.229 302.552 354.713 300.005 354.713 297.37C354.713 294.779 354.229 292.254 353.263 289.795C352.297 287.292 350.936 285.096 349.179 283.208ZM419.68 274.315C420.119 274.315 420.471 274.491 420.734 274.842C420.954 275.193 420.998 275.566 420.866 275.962L407.164 319.569C406.945 320.14 406.55 320.426 405.979 320.426H402.356C401.697 320.426 401.302 320.14 401.17 319.569L389.972 283.932L378.642 319.569C378.51 320.14 378.115 320.426 377.456 320.426H373.833C373.262 320.426 372.867 320.14 372.647 319.569L358.946 275.962C358.902 275.874 358.88 275.742 358.88 275.566C358.88 275.259 358.968 275.018 359.143 274.842C359.363 274.491 359.692 274.315 360.132 274.315H361.383C361.691 274.315 361.932 274.403 362.108 274.578C362.327 274.754 362.481 274.974 362.569 275.237L375.677 316.737L387.666 278.86C387.71 278.597 387.842 278.399 388.061 278.267C388.325 278.092 388.588 278.004 388.852 278.004H391.026C391.684 278.004 392.08 278.289 392.211 278.86L404.134 316.737L417.243 275.237C417.287 274.974 417.419 274.754 417.638 274.578C417.902 274.403 418.165 274.315 418.429 274.315H419.68ZM427.516 274.315C427.955 274.315 428.306 274.513 428.57 274.908L439.57 293.023L450.571 274.908C450.791 274.513 451.142 274.315 451.625 274.315H453.008C453.492 274.315 453.843 274.534 454.062 274.974C454.194 275.149 454.26 275.347 454.26 275.566C454.26 275.786 454.194 276.006 454.062 276.225L441.415 297.041V319.174C441.415 319.525 441.283 319.833 441.02 320.096C440.8 320.316 440.515 320.426 440.163 320.426H438.912C438.56 320.426 438.275 320.316 438.055 320.096C437.836 319.833 437.726 319.525 437.726 319.174V297.041L425.013 276.225C424.925 275.962 424.881 275.742 424.881 275.566C424.881 275.435 424.925 275.237 425.013 274.974C425.32 274.534 425.693 274.315 426.133 274.315H427.516Z" fill="#454545"/>
<path d="M181.309 347.954C181.309 347.71 181.385 347.512 181.537 347.36C181.72 347.177 181.934 347.085 182.178 347.085H191.876C193.461 347.085 194.91 347.482 196.221 348.274C197.533 349.037 198.57 350.089 199.332 351.431C200.125 352.742 200.521 354.176 200.521 355.731C200.521 357.408 200.079 358.963 199.195 360.397L197.914 362.455L199.652 364.148C201.512 365.917 202.443 368.021 202.443 370.461C202.443 372.016 202.046 373.465 201.253 374.806C200.491 376.118 199.439 377.17 198.097 377.963C196.785 378.725 195.352 379.106 193.797 379.106H182.178C181.934 379.106 181.72 379.03 181.537 378.878C181.385 378.695 181.309 378.481 181.309 378.237V347.954ZM183.87 361.815H191.876C192.973 361.815 193.98 361.54 194.895 360.991C195.84 360.443 196.587 359.711 197.136 358.796C197.685 357.85 197.96 356.829 197.96 355.731C197.96 354.633 197.685 353.627 197.136 352.712C196.587 351.797 195.84 351.065 194.895 350.516C193.98 349.967 192.973 349.693 191.876 349.693H183.87V361.815ZM183.87 376.499H193.797C194.864 376.499 195.855 376.224 196.77 375.676C197.716 375.127 198.448 374.395 198.966 373.48C199.515 372.534 199.789 371.528 199.789 370.461C199.789 369.363 199.515 368.356 198.966 367.441C198.448 366.496 197.716 365.749 196.77 365.2C195.855 364.651 194.864 364.377 193.797 364.377H183.87V376.499ZM207.393 347.085C207.637 347.085 207.836 347.177 207.988 347.36C208.171 347.512 208.263 347.71 208.263 347.954V378.237C208.263 378.481 208.171 378.695 207.988 378.878C207.836 379.03 207.637 379.106 207.393 379.106H206.524C206.28 379.106 206.067 379.03 205.884 378.878C205.731 378.695 205.655 378.481 205.655 378.237V347.954C205.655 347.71 205.731 347.512 205.884 347.36C206.067 347.177 206.28 347.085 206.524 347.085H207.393ZM227.336 346.628C229.44 346.628 231.453 347.055 233.374 347.909C235.326 348.732 237.034 349.906 238.498 351.431C239.992 352.986 241.136 354.77 241.928 356.783C242.721 358.796 243.118 360.9 243.118 363.096C243.118 365.261 242.721 367.365 241.928 369.409C241.136 371.421 239.992 373.19 238.498 374.715C237.034 376.24 235.326 377.429 233.374 378.283C231.453 379.137 229.44 379.564 227.336 379.564C225.201 379.564 223.158 379.152 221.206 378.329C219.285 377.475 217.577 376.27 216.083 374.715C214.588 373.16 213.445 371.376 212.652 369.363C211.859 367.35 211.462 365.261 211.462 363.096C211.462 360.93 211.859 358.841 212.652 356.829C213.445 354.816 214.588 353.017 216.083 351.431C217.577 349.876 219.285 348.686 221.206 347.863C223.158 347.039 225.201 346.628 227.336 346.628ZM236.622 353.261C235.372 351.98 233.938 351.004 232.322 350.333C230.736 349.632 229.074 349.281 227.336 349.281C225.567 349.281 223.875 349.632 222.258 350.333C220.642 351.004 219.209 351.98 217.958 353.261C216.738 354.572 215.793 356.097 215.122 357.835C214.451 359.543 214.116 361.296 214.116 363.096C214.116 364.895 214.451 366.649 215.122 368.356C215.793 370.064 216.738 371.574 217.958 372.885C219.209 374.166 220.642 375.157 222.258 375.859C223.875 376.529 225.567 376.865 227.336 376.865C229.074 376.865 230.736 376.529 232.322 375.859C233.938 375.157 235.372 374.166 236.622 372.885C237.872 371.574 238.818 370.079 239.458 368.402C240.129 366.694 240.465 364.926 240.465 363.096C240.465 361.296 240.129 359.543 239.458 357.835C238.787 356.097 237.842 354.572 236.622 353.261ZM247.176 379.106C246.932 379.106 246.719 379.03 246.536 378.878C246.383 378.695 246.307 378.481 246.307 378.237V347.954C246.307 347.71 246.383 347.512 246.536 347.36C246.719 347.177 246.932 347.085 247.176 347.085H248.045C248.289 347.085 248.488 347.177 248.64 347.36C248.793 347.512 248.869 347.71 248.869 347.954V376.499H262.775C263.019 376.499 263.217 376.59 263.37 376.773C263.553 376.926 263.644 377.124 263.644 377.368V378.237C263.644 378.481 263.553 378.695 263.37 378.878C263.217 379.03 263.019 379.106 262.775 379.106H247.176ZM277.727 346.628C279.831 346.628 281.844 347.055 283.765 347.909C285.717 348.732 287.424 349.906 288.888 351.431C290.383 352.986 291.526 354.77 292.319 356.783C293.112 358.796 293.508 360.9 293.508 363.096C293.508 365.261 293.112 367.365 292.319 369.409C291.526 371.421 290.383 373.19 288.888 374.715C287.424 376.24 285.717 377.429 283.765 378.283C281.844 379.137 279.831 379.564 277.727 379.564C275.592 379.564 273.549 379.152 271.597 378.329C269.675 377.475 267.968 376.27 266.473 374.715C264.979 373.16 263.835 371.376 263.042 369.363C262.25 367.35 261.853 365.261 261.853 363.096C261.853 360.93 262.25 358.841 263.042 356.829C263.835 354.816 264.979 353.017 266.473 351.431C267.968 349.876 269.675 348.686 271.597 347.863C273.549 347.039 275.592 346.628 277.727 346.628ZM287.013 353.261C285.762 351.98 284.329 351.004 282.713 350.333C281.127 349.632 279.465 349.281 277.727 349.281C275.958 349.281 274.265 349.632 272.649 350.333C271.033 351.004 269.599 351.98 268.349 353.261C267.129 354.572 266.184 356.097 265.513 357.835C264.842 359.543 264.506 361.296 264.506 363.096C264.506 364.895 264.842 366.649 265.513 368.356C266.184 370.064 267.129 371.574 268.349 372.885C269.599 374.166 271.033 375.157 272.649 375.859C274.265 376.529 275.958 376.865 277.727 376.865C279.465 376.865 281.127 376.529 282.713 375.859C284.329 375.157 285.762 374.166 287.013 372.885C288.263 371.574 289.208 370.079 289.849 368.402C290.52 366.694 290.855 364.926 290.855 363.096C290.855 361.296 290.52 359.543 289.849 357.835C289.178 356.097 288.233 354.572 287.013 353.261ZM319.535 350.424C319.352 350.607 319.139 350.699 318.895 350.699C318.834 350.699 318.712 350.668 318.529 350.607C318.285 350.485 318.102 350.409 317.98 350.379C316.394 349.677 314.64 349.327 312.719 349.327C310.859 349.327 309.09 349.677 307.413 350.379C305.735 351.05 304.256 352.041 302.975 353.352H302.93C301.649 354.663 300.658 356.158 299.956 357.835C299.255 359.512 298.904 361.266 298.904 363.096C298.904 364.926 299.255 366.679 299.956 368.356C300.658 370.034 301.649 371.528 302.93 372.839L302.975 372.885C304.256 374.166 305.735 375.157 307.413 375.859C309.09 376.529 310.859 376.865 312.719 376.865C314.61 376.865 316.363 376.529 317.98 375.859C319.627 375.188 321.121 374.181 322.463 372.839L323.515 371.741V364.239H311.941C311.697 364.239 311.484 364.163 311.301 364.011C311.148 363.828 311.072 363.614 311.072 363.37V362.501C311.072 362.227 311.148 362.013 311.301 361.861C311.484 361.678 311.697 361.586 311.941 361.586H325.299C325.543 361.586 325.756 361.678 325.939 361.861C326.122 362.013 326.214 362.227 326.214 362.501V372.702C325.604 373.434 324.979 374.105 324.338 374.715C322.813 376.24 321.029 377.429 318.986 378.283C317.004 379.137 314.915 379.564 312.719 379.564C310.523 379.564 308.419 379.152 306.406 378.329C304.394 377.475 302.625 376.27 301.1 374.715C299.514 373.16 298.309 371.391 297.486 369.409C296.663 367.396 296.251 365.291 296.251 363.096C296.251 360.9 296.663 358.811 297.486 356.829C298.34 354.816 299.545 353.047 301.1 351.522V351.477C302.625 349.921 304.394 348.732 306.406 347.909C308.419 347.055 310.523 346.628 312.719 346.628C314.823 346.628 316.912 347.055 318.986 347.909L319.901 348.32C320.206 348.473 320.389 348.701 320.45 349.006V349.144C320.45 349.418 320.343 349.616 320.13 349.738L319.535 350.424ZM331.36 347.085C331.604 347.085 331.802 347.177 331.954 347.36C332.137 347.512 332.229 347.71 332.229 347.954V378.237C332.229 378.481 332.137 378.695 331.954 378.878C331.802 379.03 331.604 379.106 331.36 379.106H330.491C330.247 379.106 330.033 379.03 329.85 378.878C329.698 378.695 329.621 378.481 329.621 378.237V347.954C329.621 347.71 329.698 347.512 329.85 347.36C330.033 347.177 330.247 347.085 330.491 347.085H331.36ZM358.713 350.424C358.53 350.607 358.316 350.699 358.072 350.699C358.011 350.699 357.889 350.668 357.706 350.607C357.462 350.485 357.28 350.409 357.158 350.379C355.572 349.677 353.818 349.327 351.897 349.327C350.037 349.327 348.268 349.677 346.591 350.379C344.913 351.05 343.434 352.041 342.153 353.352H342.108C340.827 354.663 339.836 356.158 339.134 357.835C338.433 359.512 338.082 361.266 338.082 363.096C338.082 364.926 338.433 366.679 339.134 368.356C339.836 370.034 340.827 371.528 342.108 372.839L342.153 372.885C343.434 374.166 344.913 375.157 346.591 375.859C348.268 376.529 350.037 376.865 351.897 376.865C353.788 376.865 355.541 376.529 357.158 375.859C357.401 375.737 357.584 375.66 357.706 375.63C357.889 375.569 358.011 375.538 358.072 375.538C358.286 375.538 358.499 375.615 358.713 375.767L359.353 376.453C359.536 376.636 359.628 376.85 359.628 377.094C359.628 377.277 359.567 377.444 359.445 377.597C359.353 377.719 359.231 377.81 359.079 377.871C358.804 378.054 358.499 378.191 358.164 378.283C356.182 379.137 354.093 379.564 351.897 379.564C349.701 379.564 347.597 379.152 345.584 378.329C343.602 377.505 341.833 376.301 340.278 374.715C338.692 373.16 337.487 371.391 336.664 369.409C335.841 367.396 335.429 365.291 335.429 363.096C335.429 360.9 335.841 358.811 336.664 356.829C337.518 354.816 338.722 353.047 340.278 351.522V351.477C341.833 349.921 343.602 348.732 345.584 347.909C347.597 347.055 349.701 346.628 351.897 346.628C354.001 346.628 356.09 347.055 358.164 347.909L359.079 348.32C359.384 348.473 359.567 348.701 359.628 349.006V349.144C359.628 349.418 359.521 349.616 359.308 349.738L358.713 350.424ZM362.366 347.954C362.366 347.71 362.443 347.512 362.595 347.36C362.748 347.177 362.946 347.085 363.19 347.085H377.737C378.072 347.085 378.316 347.207 378.468 347.451C378.621 347.695 378.651 347.97 378.56 348.274L366.849 376.499H378.834C379.078 376.499 379.277 376.59 379.429 376.773C379.612 376.926 379.704 377.124 379.704 377.368V378.237C379.704 378.481 379.612 378.695 379.429 378.878C379.277 379.03 379.078 379.106 378.834 379.106H364.288C363.983 379.106 363.739 378.984 363.556 378.74C363.403 378.435 363.373 378.161 363.464 377.917L375.175 349.647H363.19C362.976 349.647 362.778 349.571 362.595 349.418C362.443 349.235 362.366 349.037 362.366 348.823V347.954ZM404.335 379.061C404.182 379.03 404.03 378.908 403.877 378.695L388.69 354.724L386.403 351.156V378.237C386.403 378.481 386.312 378.679 386.129 378.832C385.976 378.984 385.778 379.061 385.534 379.061H384.71C384.466 379.061 384.253 378.984 384.07 378.832C383.918 378.679 383.841 378.481 383.841 378.237V348C383.841 347.756 383.918 347.558 384.07 347.405C384.223 347.222 384.421 347.131 384.665 347.131H384.802L386.403 347.085C386.738 347.085 386.982 347.222 387.135 347.497L404.335 374.578V348C404.335 347.756 404.411 347.558 404.564 347.405C404.747 347.253 404.945 347.177 405.158 347.177H406.027C406.271 347.177 406.47 347.253 406.622 347.405C406.805 347.558 406.897 347.756 406.897 348V378.237C406.897 378.451 406.836 378.634 406.714 378.786C406.592 378.908 406.439 379 406.256 379.061V379.106H404.609H404.518H404.335V379.061ZM426.242 376.499C426.486 376.499 426.685 376.59 426.837 376.773C427.02 376.926 427.111 377.124 427.111 377.368V378.237C427.111 378.481 427.02 378.695 426.837 378.878C426.685 379.03 426.486 379.106 426.242 379.106H412.107C411.863 379.106 411.65 379.03 411.467 378.878C411.314 378.695 411.238 378.481 411.238 378.237V347.954C411.238 347.71 411.314 347.512 411.467 347.36C411.65 347.177 411.863 347.085 412.107 347.085H426.242C426.486 347.085 426.685 347.177 426.837 347.36C427.02 347.512 427.111 347.71 427.111 347.954V348.823C427.111 349.067 427.02 349.266 426.837 349.418C426.685 349.571 426.486 349.647 426.242 349.647H413.846V361.769H425.053C425.266 361.769 425.449 361.861 425.602 362.044C425.785 362.196 425.876 362.394 425.876 362.638V363.553C425.876 363.797 425.785 364.011 425.602 364.194C425.449 364.346 425.266 364.422 425.053 364.422H413.846V376.499H426.242ZM444.23 347.909C444.23 347.665 444.307 347.466 444.459 347.314C444.642 347.161 444.856 347.085 445.1 347.085H452.464C452.708 347.085 452.907 347.177 453.059 347.36C453.242 347.512 453.334 347.695 453.334 347.909V368.677C453.334 370.171 453.013 371.589 452.373 372.931C451.733 374.273 450.833 375.447 449.674 376.453C448.515 377.46 447.204 378.237 445.74 378.786C444.276 379.305 442.751 379.564 441.165 379.564C439.58 379.564 438.04 379.305 436.545 378.786C435.081 378.237 433.77 377.46 432.611 376.453C431.452 375.386 430.568 374.227 429.958 372.977C429.897 372.794 429.867 372.672 429.867 372.611C429.867 372.428 429.912 372.275 430.004 372.153C430.187 371.879 430.431 371.741 430.736 371.741H431.742C432.047 371.741 432.306 371.894 432.52 372.199C433.038 373.114 433.648 373.861 434.35 374.44C435.264 375.264 436.301 375.889 437.46 376.316C438.65 376.712 439.885 376.911 441.165 376.911C442.446 376.911 443.666 376.712 444.825 376.316C446.014 375.889 447.051 375.264 447.936 374.44C448.79 373.678 449.461 372.809 449.948 371.833C450.436 370.857 450.68 369.805 450.68 368.677V349.693H445.1C444.856 349.693 444.642 349.616 444.459 349.464C444.307 349.281 444.23 349.067 444.23 348.823V347.909Z" fill="#454545"/>
<defs>
<linearGradient id="paint0_linear" x1="179" y1="439" x2="468" y2="89.705" gradientUnits="userSpaceOnUse">
<stop stop-color="#D2B780"/>
<stop offset="0.510417" stop-color="#F6E3BF"/>
<stop offset="1" stop-color="#D2B780"/>
</linearGradient>
<linearGradient id="paint1_linear" x1="215.859" y1="470.972" x2="404.607" y2="58.7798" gradientUnits="userSpaceOnUse">
<stop stop-color="#D2B780"/>
<stop offset="0.510417" stop-color="#F6E3BF"/>
<stop offset="1" stop-color="#D2B780"/>
</linearGradient>
<linearGradient id="paint2_linear" x1="135.737" y1="352.46" x2="560.666" y2="194.462" gradientUnits="userSpaceOnUse">
<stop stop-color="#D2B780"/>
<stop offset="0.510417" stop-color="#F6E3BF"/>
<stop offset="1" stop-color="#D2B780"/>
</linearGradient>
</defs>
</svg>
